<svg xmlns="http://www.w3.org/2000/svg" viewBox="0 0 512 512" fill="currentColor">
  <path d="M462.541,139.29c-6.423-9.366-17.019-14.961-28.261-14.961H152.307l-5.623-28.922c-5.443-27.998-30.283-48.739-59.122-49.293
    L72.819,45.82c-8.647-0.165-15.851,6.702-16.017,15.35c-0.166,8.647,6.701,15.851,15.35,16.017l14.75,0.287
    c15.323,0.293,28.603,11.289,31.595,26.163l41.971,215.852c4.666,24.001,25.567,41.449,50.074,41.783l152.836,2.08
    c23.981,0.326,44.402-16.283,49.423-40.154l19.386-92.089C434.635,210.039,431.663,187.001,462.541,139.29z"/>
  <circle cx="180.743" cy="424.513" r="32.616"/>
  <circle cx="381.857" cy="424.513" r="32.616"/>
  <path d="M346.571,227.003v-32.001c0-8.837-7.163-16-16-16s-16,7.163-16,16v32.001h-32.001c-8.837,0-16,7.163-16,16
    s7.163,16,16,16h32.001v32.001c0,8.837,7.163,16,16,16s16-7.163,16-16v-32.001h32.001c8.837,0,16-7.163,16-16
    s-7.163-16-16-16H346.571z"/>
</svg>
